<svg width="164" height="388" viewBox="0 0 164 388" fill="none" xmlns="http://www.w3.org/2000/svg">
<path fill-rule="evenodd" clip-rule="evenodd" d="M83.0001 1.50001L82.6342 1.15921L83.4581 0.27475L83.4998 1.48277L83.0001 1.50001ZM83.0001 1.50001C83.4998 1.48277 83.4998 1.48289 83.4998 1.48314L83.4998 1.48429L83.5 1.48892L83.5006 1.50742L83.5032 1.5808L83.5134 1.86814C83.5225 2.12031 83.5361 2.49122 83.554 2.96593C83.5898 3.91536 83.643 5.27995 83.7126 6.94027C83.8517 10.261 84.056 14.7641 84.3172 19.4939C84.5784 24.2244 84.8962 29.1787 85.262 33.4029C85.6292 37.6415 86.0416 41.1048 86.4851 42.8787C88.4997 50.9372 90.171 55.6333 92.1653 59.307C94.0396 62.7594 96.2075 65.3271 99.2756 68.9609C99.4734 69.1952 99.675 69.434 99.8805 69.6777C100.659 70.6004 101.491 71.5929 102.386 72.6826C105.415 76.3694 108.687 80.1613 112.068 84.0768L112.177 84.2029C115.522 88.0775 118.971 92.0723 122.385 96.1969C133.648 109.804 144.566 124.864 150.209 141.842C154.221 153.909 155.568 166.944 152.489 181.106C151.12 187.403 149.77 193.008 148.44 198.126C145.826 208.192 143.293 216.373 140.865 224.214L140.865 224.216C140.353 225.87 139.845 227.508 139.343 229.146C136.458 238.551 133.731 247.946 131.194 260.102C129.545 268.002 127.976 277.07 126.496 288.067C123.016 313.917 131.963 338.555 141.815 356.762C146.738 365.861 151.88 373.34 155.791 378.543C157.746 381.145 159.392 383.177 160.549 384.558C161.128 385.248 161.584 385.775 161.895 386.13L161.961 386.205L162.026 386.279L162.093 386.355C162.156 386.425 162.208 386.483 162.249 386.53C162.289 386.574 162.32 386.608 162.34 386.63L162.362 386.655L162.368 386.661L162.369 386.662C162.369 386.662 162.369 386.662 162.302 386.723L162.369 386.663L163.135 387.5H162H152.5H36.0001H14H13.6526L13.5314 387.174L14 387C13.5314 387.174 13.5313 387.174 13.5312 387.174L13.5305 387.172L13.5282 387.166L13.5193 387.142L13.4845 387.047C13.454 386.963 13.409 386.839 13.3505 386.675C13.2336 386.348 13.0629 385.864 12.8473 385.234C12.416 383.974 11.805 382.129 11.0846 379.788C9.6439 375.105 7.76517 368.436 6.01173 360.483C2.50617 344.582 -0.504809 323.525 1.50235 302.951C3.51605 282.311 15.0906 263.462 27.8315 243.976C28.8056 242.487 29.7866 240.993 30.7708 239.495L30.7726 239.492C42.6855 221.354 55.0788 202.484 61.5209 180.857C68.4777 157.502 64.2615 141.873 58.5338 127.055C57.6874 124.866 56.8065 122.691 55.9231 120.511C50.8255 107.928 45.6428 95.1345 46.5008 77.975C47.5069 57.8522 56.5566 38.6416 65.3251 24.4867C69.7125 17.4041 74.0369 11.5755 77.265 7.5169C78.8792 5.48737 80.2197 3.89986 81.1575 2.81885C81.6264 2.27833 81.9947 1.8644 82.2462 1.58512C82.3719 1.44547 82.4685 1.33949 82.5338 1.26817L82.6082 1.18732L82.6273 1.16662L82.6323 1.16125L82.6336 1.15981C82.634 1.15944 82.6342 1.15921 83.0001 1.50001ZM14.35 386.5H35.2684C35.1961 386.314 35.11 386.092 35.0111 385.835C34.6757 384.966 34.1928 383.705 33.6025 382.137C32.4218 379.002 30.811 374.639 29.0907 369.728C25.6529 359.914 21.7673 347.886 20.0098 339.098C18.0745 329.422 16.9838 320.053 16.0024 310.049C15.2063 301.934 17.5528 291.607 20.0188 282.864C24.1439 268.239 34.4072 255.853 44.2893 243.928L44.2909 243.926L44.2935 243.923L44.2951 243.921C45.4701 242.503 46.6397 241.091 47.7929 239.683C49.9752 237.019 52.101 234.365 54.1001 231.7C63.586 219.052 70.8572 208.001 75.9449 194.82C77.2873 191.342 78.4781 187.715 79.5174 183.87C83.1246 170.523 83.0659 160.334 81.6285 151.581C81.0834 148.261 80.3391 145.143 79.5177 142.132C78.2993 137.664 75.4116 130.937 72.2696 123.617L72.2678 123.612C71.7141 122.322 71.1524 121.014 70.5906 119.696C66.5758 110.279 62.554 100.389 61.5059 93.576C60.7789 88.8508 60.4451 85.4954 60.365 82.5134C60.2672 78.8779 60.5484 75.7976 60.9421 71.4851L60.9421 71.485C61.1145 69.5968 61.3084 67.4723 61.5015 64.9617C62.5054 51.9111 66.5162 35.8722 68.5222 29.353C69.539 26.0483 73.066 19.0012 76.3074 12.83C77.7732 10.0394 79.188 7.41416 80.3001 5.37195C79.6343 6.17058 78.8775 7.09602 78.0476 8.13938C74.8383 12.1745 70.5377 17.9709 66.1752 25.0133C57.4437 39.1084 48.4934 58.1479 47.4996 78.025C46.6534 94.9478 51.7456 107.525 56.8392 120.106L56.8396 120.107L56.8397 120.107L56.8398 120.107L56.8399 120.107L56.8401 120.108L56.8402 120.108L56.8403 120.108L56.8404 120.109L56.8405 120.109L56.8406 120.109L56.8407 120.11L56.8409 120.11L56.841 120.11L56.8411 120.11L56.8412 120.111L56.8413 120.111L56.8414 120.111L56.8415 120.112L56.8417 120.112L56.8418 120.112L56.8419 120.112L56.842 120.113L56.8421 120.113L56.8422 120.113L56.8423 120.114L56.8425 120.114L56.8426 120.114L56.8427 120.115C57.7277 122.3 58.6127 124.486 59.4665 126.695C65.2387 141.627 69.5225 157.498 62.4793 181.143C55.9932 202.917 43.5202 221.906 31.6211 240.022C30.6317 241.528 29.6462 243.028 28.6685 244.524C15.9094 264.038 4.48393 282.689 2.49763 303.049C0.504792 323.475 3.49383 344.418 6.98828 360.267C8.73484 368.189 10.6061 374.832 12.0404 379.494C12.7575 381.824 13.3653 383.659 13.7934 384.91C14.0075 385.536 14.1766 386.016 14.2921 386.339L14.35 386.5ZM36.3414 386.5H151.614L151.581 386.446C151.265 385.922 150.809 385.164 150.246 384.226C149.121 382.35 147.57 379.756 145.87 376.879C142.47 371.13 138.465 364.246 136.059 359.735C131.287 350.788 125.135 337.405 122.092 317.645C122.033 317.663 121.97 317.681 121.902 317.701L121.751 317.744L121.634 317.778C120.97 317.967 119.989 318.234 118.722 318.548C116.187 319.176 112.502 319.991 107.893 320.743C98.6771 322.248 85.7628 323.502 70.9662 322.499C56.1723 321.496 42.5125 318.488 32.5542 315.732C27.574 314.354 23.5171 313.038 20.704 312.066C19.2973 311.581 18.2015 311.181 17.4566 310.902L17.2596 310.828L17.0772 310.759C18.0375 320.45 19.117 329.536 20.9903 338.902C22.7329 347.614 26.5973 359.586 30.0345 369.397C31.7517 374.299 33.3596 378.655 34.5383 381.785C35.1276 383.35 35.6096 384.608 35.9441 385.475C36.1114 385.909 36.2418 386.244 36.3303 386.472L36.3414 386.5ZM16.9694 309.647C17.1579 309.72 17.4388 309.828 17.8071 309.965C18.5446 310.241 19.6323 310.638 21.0304 311.121C23.8267 312.087 27.8635 313.396 32.8209 314.768C42.7376 317.512 56.3278 320.504 71.0339 321.501C85.7373 322.498 98.573 321.252 107.732 319.757C112.311 319.009 115.97 318.199 118.481 317.577C119.737 317.266 120.706 317.002 121.36 316.816C121.595 316.749 121.79 316.692 121.942 316.647C120.495 306.889 120.231 301.084 120.47 296.909C120.64 293.929 121.071 291.768 121.496 289.632C121.674 288.742 121.85 287.857 122.007 286.918C122.556 283.624 124.621 276.835 126.533 270.909C127.492 267.937 128.416 265.169 129.101 263.144C129.444 262.132 129.727 261.305 129.924 260.731L129.949 260.657C129.848 260.676 129.739 260.696 129.621 260.717C128.852 260.858 127.727 261.052 126.302 261.268C123.452 261.699 119.398 262.216 114.576 262.561C104.936 263.251 92.2064 263.253 79.8905 260.488C67.5553 257.719 59.5249 252.678 54.5718 248.313C52.0965 246.131 50.3923 244.12 49.3044 242.649C48.7604 241.914 48.3705 241.313 48.1151 240.894L48.1058 240.879C47.0989 242.104 46.0829 243.331 45.0646 244.56L45.0636 244.562C35.1621 256.515 25.0449 268.728 20.9813 283.136C18.5452 291.773 16.2806 301.785 16.9694 309.647ZM48.8823 240.229C48.9091 240.274 48.938 240.323 48.9692 240.374C49.2099 240.769 49.5832 241.344 50.1083 242.054C51.1586 243.474 52.8157 245.432 55.233 247.562C60.0651 251.822 67.9448 256.781 80.1096 259.512C92.2937 262.247 104.916 262.249 114.504 261.564C119.296 261.221 123.324 260.707 126.153 260.279C127.567 260.065 128.681 259.873 129.441 259.734C129.805 259.667 130.088 259.613 130.283 259.575C132.081 251.005 133.974 243.802 135.948 236.996C133.819 238.405 131.265 239.5 128.5 239.5C120.768 239.5 114.5 233.232 114.5 225.5C114.5 217.768 120.768 211.5 128.5 211.5C133.908 211.5 139.006 214.571 141.399 219.094C143.288 212.942 145.233 206.417 147.227 198.815C146.713 199.006 145.992 199.266 145.082 199.575C143.116 200.243 140.269 201.137 136.742 202.047C129.691 203.866 119.912 205.749 109.012 206C98.0695 206.252 89.8428 203.605 84.3448 200.886C81.5968 199.527 79.5317 198.15 78.1504 197.11C77.4729 196.6 76.9597 196.171 76.6109 195.865C71.4876 208.873 64.2408 219.846 54.9001 232.3C52.9544 234.894 50.8921 237.474 48.7806 240.055L48.799 240.087L48.829 240.139C48.8457 240.167 48.8635 240.198 48.8823 240.229ZM140.964 220.51C139.002 215.823 133.929 212.5 128.5 212.5C121.32 212.5 115.5 218.32 115.5 225.5C115.5 232.68 121.32 238.5 128.5 238.5C131.346 238.5 134.009 237.214 136.203 235.597L136.312 235.746C136.995 233.421 137.686 231.136 138.387 228.852C138.889 227.216 139.395 225.581 139.906 223.932L139.907 223.928L139.912 223.912L139.917 223.895L139.939 223.823C140.279 222.727 140.62 221.623 140.964 220.51ZM76.9978 194.868C77.067 194.932 77.1518 195.008 77.2521 195.097C77.583 195.388 78.083 195.808 78.7518 196.311C80.0895 197.318 82.102 198.661 84.7881 199.989C90.1584 202.645 98.2261 205.248 108.989 205C119.792 204.751 129.492 202.884 136.493 201.078C139.992 200.176 142.815 199.289 144.761 198.628C145.734 198.298 146.488 198.024 146.998 197.833C147.228 197.747 147.408 197.678 147.536 197.628C148.268 194.805 149.005 191.833 149.749 188.678C146.499 189.402 143.335 188.483 140.399 186.441C134.824 182.564 133.448 174.9 137.326 169.324C140.795 164.336 147.839 162.825 153.178 165.284C153.142 157.437 151.786 149.963 149.479 142.823C149.412 142.873 149.34 142.926 149.263 142.984C148.758 143.358 148.022 143.892 147.092 144.536C145.233 145.824 142.597 147.551 139.489 149.31C133.288 152.82 125.149 156.491 117.533 156.999C109.967 157.503 101.071 156.243 94.0892 154.866C90.5936 154.176 87.5685 153.455 85.4169 152.906C84.3409 152.632 83.4831 152.401 82.8937 152.238L82.7385 152.195C84.0753 160.911 84.0225 171.033 80.4827 184.13C79.4656 187.894 78.3039 191.452 76.9978 194.868ZM150.786 184.177C150.525 185.336 150.265 186.471 150.006 187.584C146.93 188.434 143.888 187.649 140.97 185.62C135.848 182.058 134.584 175.018 138.147 169.895C141.405 165.211 148.194 163.84 153.174 166.394C153.156 167.973 153.084 169.568 152.956 171.177C151.522 170.58 149.797 170.383 148.168 170.588C146.227 170.833 144.331 171.662 143.215 173.188C140.888 176.369 141.58 180.834 144.761 183.161C145.72 183.862 146.955 184.201 148.168 184.302C149.062 184.376 149.968 184.324 150.786 184.177ZM151.025 183.107C151.187 182.379 151.349 181.641 151.512 180.894C152.15 177.957 152.596 175.07 152.864 172.231C151.57 171.613 149.897 171.378 148.293 171.58C146.52 171.804 144.922 172.548 144.022 173.779C142.021 176.514 142.616 180.353 145.351 182.354C146.112 182.91 147.148 183.214 148.251 183.305C149.216 183.386 150.197 183.301 151.025 183.107ZM82.5634 151.107C82.7109 151.149 82.9111 151.205 83.1601 151.274C83.7437 151.435 84.595 151.665 85.6639 151.937C87.8019 152.483 90.8088 153.199 94.2828 153.884C101.24 155.257 110.033 156.497 117.467 156.001C124.851 155.509 132.83 151.93 138.996 148.44C142.072 146.699 144.682 144.989 146.523 143.714C147.443 143.077 148.171 142.549 148.667 142.18C148.865 142.034 149.026 141.913 149.148 141.82C147.833 137.919 146.236 134.118 144.419 130.411C142.401 132.776 139.524 133.888 136.185 134.046C129.773 134.351 124.328 129.399 124.024 122.987C123.758 117.38 127.51 112.514 132.743 111.176C129.379 106.463 125.798 101.91 122.164 97.4995C122.017 97.8669 121.815 98.3451 121.556 98.9097C120.93 100.271 119.964 102.137 118.602 104.162C115.882 108.207 111.561 112.914 105.186 115.464C98.86 117.995 90.3075 119.123 83.3738 119.624C79.8996 119.875 76.8179 119.969 74.6045 120C73.4976 120.016 72.6074 120.016 71.9935 120.012L71.8121 120.01C72.2703 121.083 72.7285 122.15 73.1822 123.207L73.1823 123.207C76.3207 130.518 79.2438 137.327 80.4824 141.868C81.2839 144.807 82.0161 147.859 82.5634 151.107ZM133.368 112.056C128.39 113.136 124.773 117.682 125.023 122.94C125.301 128.8 130.277 133.326 136.137 133.047C139.435 132.891 142.125 131.76 143.93 129.427C143.476 128.524 143.008 127.626 142.529 126.733C141.325 128.135 139.554 129.041 137.56 129.088C133.83 129.176 130.734 126.223 130.647 122.492C130.57 119.223 132.828 116.442 135.898 115.744C135.072 114.504 134.227 113.275 133.368 112.056ZM137.537 128.088C139.373 128.045 140.989 127.147 142.012 125.781C140.304 122.671 138.453 119.628 136.496 116.647C133.691 117.09 131.578 119.552 131.646 122.469C131.721 125.647 134.358 128.163 137.537 128.088ZM71.3834 119.006C71.5372 119.008 71.7441 119.01 71.9998 119.012C72.6077 119.016 73.491 119.016 74.5903 119C76.7893 118.969 79.8512 118.875 83.3018 118.626C90.2178 118.127 98.6401 117.005 104.814 114.536C110.939 112.086 115.118 107.551 117.773 103.604C119.099 101.632 120.039 99.815 120.647 98.4919C120.951 97.8306 121.172 97.2935 121.316 96.9234C121.364 96.8024 121.402 96.6993 121.433 96.6155C119.674 94.4934 117.906 92.4054 116.147 90.3492C114.765 92.5772 112.525 94.2727 109.764 94.8976C104.298 96.1351 98.8637 92.7071 97.6262 87.2409C96.5248 82.376 99.1186 77.537 103.556 75.6582C102.899 74.8733 102.251 74.0931 101.614 73.3174C100.896 72.4436 100.218 71.6321 99.5755 70.868C99.402 71.1548 99.1662 71.5286 98.8671 71.9686C98.1536 73.0181 97.0783 74.4466 95.6263 75.97C92.7242 79.0149 88.3018 82.4549 82.2444 83.9848C76.2238 85.5054 70.8382 85.2517 66.9585 84.6185C65.0182 84.3018 63.4522 83.8899 62.3686 83.556C61.9782 83.4357 61.6503 83.3255 61.3898 83.2334C61.5012 85.9786 61.8318 89.118 62.4943 93.424C63.5085 100.016 67.3973 109.645 71.3834 119.006ZM111.418 84.8544L111.427 84.865L111.881 85.3911C112.201 85.7613 112.521 86.1325 112.843 86.5048C112.194 87.7342 111.033 88.6817 109.572 89.0124C106.918 89.6132 104.279 87.9489 103.679 85.2949C103.12 82.8256 104.522 80.3689 106.858 79.5557C108.314 81.2587 109.803 82.9833 111.311 84.7304L111.417 84.8538L111.418 84.8544ZM106.169 78.7497C103.576 79.8463 102.06 82.6733 102.703 85.5158C103.426 88.7083 106.6 90.7105 109.793 89.9877C111.415 89.6205 112.729 88.6204 113.535 87.308C114.175 88.0505 114.817 88.7971 115.461 89.548C114.232 91.6925 112.143 93.3337 109.544 93.9223C104.616 95.0379 99.7171 91.9476 98.6015 87.0201C97.5854 82.5317 100.059 78.0663 104.232 76.4635C104.87 77.2212 105.516 77.9832 106.169 78.7497ZM61.3567 82.1568C61.39 82.1693 61.4259 82.1828 61.4646 82.1971C61.7361 82.2976 62.1401 82.4392 62.6631 82.6003C63.7093 82.9227 65.2304 83.3232 67.1196 83.6315C70.899 84.2484 76.142 84.4946 81.9995 83.0152C87.8202 81.5451 92.0859 78.2352 94.9025 75.28C96.3099 73.8034 97.3514 72.4194 98.0401 71.4064C98.3843 70.9001 98.6399 70.4871 98.8086 70.2022C98.8307 70.165 98.8513 70.1299 98.8704 70.0971L98.8931 70.058L98.4915 69.5824L98.4915 69.5824C97.6669 68.6059 96.9021 67.7003 96.1871 66.8284C94.6376 68.4726 92.4386 69.5 90 69.5C85.3056 69.5 81.5 65.6944 81.5 61C81.5 56.9035 84.3975 53.4844 88.2552 52.6794C87.3664 50.0757 86.4777 46.972 85.515 43.1213C85.049 41.2572 84.6317 37.714 84.2658 33.4892C83.8986 29.25 83.5801 24.284 83.3187 19.5491C83.0572 14.8134 82.8526 10.3057 82.7134 6.98211C82.6511 5.49411 82.6019 4.24332 82.5665 3.31551C82.2792 3.83698 81.93 4.47307 81.5326 5.2006C80.3772 7.31624 78.8161 10.2044 77.1927 13.295C73.9342 19.4988 70.4611 26.4517 69.4779 29.6471C67.4839 36.1278 63.4947 52.0889 62.4986 65.0384C62.3018 67.5961 62.1059 69.7419 61.9329 71.637L61.9328 71.6376L61.9328 71.6381C61.5545 75.7812 61.2856 78.7259 61.3567 82.1568ZM88.5885 53.6325C85.1213 54.2926 82.5 57.3405 82.5 61C82.5 65.1421 85.8579 68.5 90 68.5C92.1996 68.5 94.1779 67.5536 95.5504 66.0442C95.0119 65.3731 94.5021 64.7159 94.0162 64.0547C93.1134 64.9477 91.8711 65.5 90.5 65.5C87.7386 65.5 85.5 63.2614 85.5 60.5C85.5 58.1349 87.1418 56.1538 89.3482 55.6334C89.0931 55.0003 88.8404 54.3352 88.5885 53.6325ZM91.2865 59.7841C91.9549 61.0153 92.6603 62.1377 93.4241 63.2295C92.6935 64.0119 91.6538 64.5 90.5 64.5C88.2909 64.5 86.5 62.7092 86.5 60.5C86.5 58.5515 87.8936 56.9279 89.7382 56.5724C90.2379 57.7388 90.75 58.7958 91.2865 59.7841ZM128.755 267.329C128.352 268.548 127.922 269.861 127.484 271.216C125.565 277.165 123.528 283.876 122.993 287.082C122.828 288.075 122.646 288.987 122.466 289.891C122.045 292 121.634 294.059 121.468 296.966C121.231 301.105 121.497 306.942 122.995 316.926C125.984 336.853 132.159 350.298 136.941 359.265C139.335 363.754 143.33 370.62 146.73 376.371C148.43 379.244 149.979 381.837 151.104 383.712C151.666 384.649 152.122 385.406 152.438 385.929L152.619 386.231L152.782 386.5H160.891C160.599 386.164 160.226 385.729 159.783 385.2C158.616 383.807 156.958 381.761 154.991 379.144C151.058 373.91 145.887 366.389 140.935 357.238C131.037 338.945 121.984 314.083 125.505 287.933C126.545 280.205 127.63 273.424 128.755 267.329ZM72 77C75.866 77 79 73.866 79 70C79 66.134 75.866 63 72 63C68.134 63 65 66.134 65 70C65 73.866 68.134 77 72 77ZM72 78C76.4183 78 80 74.4183 80 70C80 65.5817 76.4183 62 72 62C67.5817 62 64 65.5817 64 70C64 74.4183 67.5817 78 72 78ZM93 103C93 107.971 88.9706 112 84 112C79.0294 112 75 107.971 75 103C75 98.0294 79.0294 94 84 94C88.9706 94 93 98.0294 93 103ZM94 103C94 108.523 89.5228 113 84 113C78.4771 113 74 108.523 74 103C74 97.4772 78.4771 93 84 93C89.5228 93 94 97.4772 94 103ZM99.5 147C105.299 147 110 142.299 110 136.5C110 130.701 105.299 126 99.5 126C93.701 126 89 130.701 89 136.5C89 142.299 93.701 147 99.5 147ZM99.5 148C105.851 148 111 142.851 111 136.5C111 130.149 105.851 125 99.5 125C93.1487 125 88 130.149 88 136.5C88 142.851 93.1487 148 99.5 148ZM112 180.5C112 186.851 106.851 192 100.5 192C94.1487 192 89 186.851 89 180.5C89 174.149 94.1487 169 100.5 169C106.851 169 112 174.149 112 180.5ZM113 180.5C113 187.404 107.404 193 100.5 193C93.5964 193 88 187.404 88 180.5C88 173.596 93.5964 168 100.5 168C107.404 168 113 173.596 113 180.5ZM76.5 244C83.4036 244 89 238.404 89 231.5C89 224.596 83.4036 219 76.5 219C69.5964 219 64 224.596 64 231.5C64 238.404 69.5964 244 76.5 244ZM76.5 245C83.9558 245 90 238.956 90 231.5C90 224.044 83.9558 218 76.5 218C69.0441 218 63 224.044 63 231.5C63 238.956 69.0441 245 76.5 245ZM47.5 304C57.7173 304 66 295.717 66 285.5C66 275.283 57.7173 267 47.5 267C37.2827 267 29 275.283 29 285.5C29 295.717 37.2827 304 47.5 304ZM47.5 305C58.2695 305 67 296.27 67 285.5C67 274.73 58.2695 266 47.5 266C36.7304 266 28 274.73 28 285.5C28 296.27 36.7304 305 47.5 305ZM118 290C118 298.837 110.837 306 102 306C93.1634 306 86 298.837 86 290C86 281.163 93.1634 274 102 274C110.837 274 118 281.163 118 290ZM119 290C119 299.389 111.389 307 102 307C92.6111 307 85 299.389 85 290C85 280.611 92.6111 273 102 273C111.389 273 119 280.611 119 290ZM56.5 375C67.8218 375 77 365.822 77 354.5C77 343.178 67.8218 334 56.5 334C45.1782 334 36 343.178 36 354.5C36 365.822 45.1782 375 56.5 375ZM56.5 376C68.3741 376 78 366.374 78 354.5C78 342.626 68.3741 333 56.5 333C44.6259 333 35 342.626 35 354.5C35 366.374 44.6259 376 56.5 376ZM131 361C131 372.046 122.046 381 111 381C99.9543 381 91 372.046 91 361C91 349.954 99.9543 341 111 341C122.046 341 131 349.954 131 361ZM132 361C132 372.598 122.598 382 111 382C99.402 382 90 372.598 90 361C90 349.402 99.402 340 111 340C122.598 340 132 349.402 132 361ZM60.5 365C67.4036 365 73 359.404 73 352.5C73 345.596 67.4036 340 60.5 340C53.5964 340 48 345.596 48 352.5C48 359.404 53.5964 365 60.5 365ZM60.5 366C67.9558 366 74 359.956 74 352.5C74 345.044 67.9558 339 60.5 339C53.0441 339 47 345.044 47 352.5C47 359.956 53.0441 366 60.5 366ZM121 358C121 364.627 115.627 370 109 370C102.373 370 97 364.627 97 358C97 351.373 102.373 346 109 346C115.627 346 121 351.373 121 358ZM122 358C122 365.18 116.18 371 109 371C101.82 371 96 365.18 96 358C96 350.82 101.82 345 109 345C116.18 345 122 350.82 122 358ZM50.5 298C56.8513 298 62 292.851 62 286.5C62 280.149 56.8513 275 50.5 275C44.1487 275 39 280.149 39 286.5C39 292.851 44.1487 298 50.5 298ZM50.5 299C57.4036 299 63 293.404 63 286.5C63 279.596 57.4036 274 50.5 274C43.5964 274 38 279.596 38 286.5C38 293.404 43.5964 299 50.5 299ZM110 288.5C110 293.747 105.747 298 100.5 298C95.2533 298 91 293.747 91 288.5C91 283.253 95.2533 279 100.5 279C105.747 279 110 283.253 110 288.5ZM111 288.5C111 294.299 106.299 299 100.5 299C94.701 299 90 294.299 90 288.5C90 282.701 94.701 278 100.5 278C106.299 278 111 282.701 111 288.5ZM78.5 239C82.0898 239 85 236.09 85 232.5C85 228.91 82.0898 226 78.5 226C74.9101 226 72 228.91 72 232.5C72 236.09 74.9101 239 78.5 239ZM78.5 240C82.6421 240 86 236.642 86 232.5C86 228.358 82.6421 225 78.5 225C74.3579 225 71 228.358 71 232.5C71 236.642 74.3579 240 78.5 240ZM134 225.5C134 229.09 131.09 232 127.5 232C123.91 232 121 229.09 121 225.5C121 221.91 123.91 219 127.5 219C131.09 219 134 221.91 134 225.5ZM135 225.5C135 229.642 131.642 233 127.5 233C123.358 233 120 229.642 120 225.5C120 221.358 123.358 218 127.5 218C131.642 218 135 221.358 135 225.5ZM102 188C105.314 188 108 185.314 108 182C108 178.686 105.314 176 102 176C98.6863 176 96 178.686 96 182C96 185.314 98.6863 188 102 188ZM102 189C105.866 189 109 185.866 109 182C109 178.134 105.866 175 102 175C98.134 175 95 178.134 95 182C95 185.866 98.134 189 102 189ZM106 137C106 140.314 103.314 143 100 143C96.6863 143 94 140.314 94 137C94 133.686 96.6863 131 100 131C103.314 131 106 133.686 106 137ZM107 137C107 140.866 103.866 144 100 144C96.134 144 93 140.866 93 137C93 133.134 96.134 130 100 130C103.866 130 107 133.134 107 137ZM84 108C86.7614 108 89 105.761 89 103C89 100.239 86.7614 98 84 98C81.2386 98 79 100.239 79 103C79 105.761 81.2386 108 84 108ZM84 109C87.3137 109 90 106.314 90 103C90 99.6863 87.3137 97 84 97C80.6863 97 78 99.6863 78 103C78 106.314 80.6863 109 84 109ZM76 69.5C76 71.433 74.433 73 72.5 73C70.567 73 69 71.433 69 69.5C69 67.567 70.567 66 72.5 66C74.433 66 76 67.567 76 69.5ZM77 69.5C77 71.9853 74.9853 74 72.5 74C70.0147 74 68 71.9853 68 69.5C68 67.0147 70.0147 65 72.5 65C74.9853 65 77 67.0147 77 69.5Z" fill="black"/>
</svg>
